<?xml version="1.0" encoding="UTF-8"?>
<svg width="22px" height="24px" viewBox="0 0 22 24" version="1.1" xmlns="http://www.w3.org/2000/svg" xmlns:xlink="http://www.w3.org/1999/xlink">
    <!-- Generator: Sketch 52.5 (67469) - http://www.bohemiancoding.com/sketch -->
    <title>Group 29</title>
    <desc>Created with Sketch.</desc>
    <g id="Page-1" stroke="none" stroke-width="1" fill="none" fill-rule="evenodd">
        <g id="Proposal-1-Copy-8" transform="translate(-54.000000, -18.000000)" fill-rule="nonzero">
            <g id="Group-29" transform="translate(53.000000, 18.000000)">
                <rect id="Rectangle" x="0" y="0" width="24" height="24"></rect>
                <path d="M20.1518097,23.9936859 C21.2441538,23.9639193 22.1281317,23.0817454 22.2264517,21.9875972 L22.2336678,21.8559026 L23.0066975,6.26902695 C23.0071662,6.26121648 23.0071662,6.25338494 23.0066975,6.24557447 C23.0066977,6.12388913 22.9582968,6.00720083 22.8721677,5.92124094 C22.7860386,5.83528106 22.6692553,5.78710966 22.5475702,5.78734919 L17.5765475,5.78734919 C17.453873,2.56894802 15.1392942,0 12.3006427,0 C9.46199121,0 7.14741234,2.56894802 7.02563987,5.79005525 L2.05100913,5.79005525 C1.80096665,5.79447671 1.60045223,5.99819937 1.6,6.24828053 C1.6,6.26090878 1.6,6.27263502 1.6,6.28436126 L2.30718232,21.8098997 L2.32161461,22.0092457 C2.4298568,23.0916676 3.22363288,23.9594092 4.29252452,24 L20.0778442,24 L20.1518097,23.9936859 Z M12.3042508,1.39722629 C14.3725786,1.39722629 16.0575488,3.34648777 16.1369264,5.78644718 L8.46977111,5.78644718 C8.54554065,3.35009584 10.2332168,1.40083437 12.3006427,1.40083437 L12.3042508,1.39722629 Z M16.2469726,17.9591837 C16.1053557,19.1182771 15.3972714,20.047356 14.3013192,20.5127974 C13.6435703,20.779624 12.9356778,20.9002735 12.2266772,20.8663885 C11.2422098,20.8339931 10.2768665,20.585806 9.39884993,20.1393618 C8.99608299,19.9189639 8.61600211,19.6594333 8.26411095,19.3645281 C8.18383132,19.2986808 8.1432405,19.2382456 8.21991205,19.1300034 C8.30199572,19.0073289 8.62672229,18.5382794 8.67813733,18.4607058 C8.74669072,18.3551697 8.85854099,18.3497576 8.96407712,18.4309392 L9.10569399,18.5400834 C9.945473,19.1940467 11.029699,19.6847446 12.2338933,19.7307475 C13.7528921,19.7100011 14.8497463,19.0334874 15.0508964,17.9862442 C15.2682828,16.8316608 14.3464201,15.8421468 12.5730522,15.2892096 C12.0092908,15.1142181 10.588612,14.5504566 10.3297328,14.3980156 C9.09396775,13.6764009 8.51727741,12.7337919 8.59966174,11.5701883 C8.7259443,9.96279175 10.2250987,8.75589131 12.1337693,8.74957718 C12.9970506,8.75172597 13.8511808,8.92653896 14.6458902,9.26372759 C14.9877602,9.41307459 15.3163672,9.59110776 15.6281881,9.79591837 C15.6772674,9.82167978 15.7129041,9.8672964 15.7260226,9.92115119 C15.739141,9.97500599 15.7284753,10.0319014 15.6967415,10.0773481 C15.6209719,10.2018266 15.3972714,10.5509077 15.3061675,10.6970346 C15.2403202,10.7962566 15.1591386,10.8079829 15.0427782,10.7349194 C14.1875945,10.163943 13.1845486,9.85456605 12.1563198,9.84462735 C10.8520014,9.87078588 9.86880144,10.6402075 9.80475815,11.6955688 C9.7876198,12.6481001 10.5164506,13.3399481 12.0598038,13.8676288 C15.2619687,14.8833014 16.4724772,16.0838877 16.2433645,17.9627917 L16.2469726,17.9591837 Z" id="Shape" fill="#FFFFFF"></path>
            </g>
        </g>
    </g>
</svg>
